<svg xmlns="http://www.w3.org/2000/svg" viewBox="0 0 200 290">
    <path d="M71.485 15.443c-40.806.143-56.136 2.312-59.473 27.879-8.617 66.012-6.258 138.36-6.541 209.19-.044 10.923 20.176 17.978 47.613 21.334v6.322h103.02v-6.73c27.769-3.88 48.479-11.773 48.32-22.694-1.003-69.051-1.806-138.13-7.971-206.35-2.416-26.731-33.665-28.941-85.101-28.941H90.576c-6.909 0-13.258-.021-19.088-.001z"
          fill="none" stroke="#000" stroke-dashoffset="1" stroke-linejoin="round" stroke-width="3.451"/>
    <g fill="#231f20">
        <path d="M38.541 228.687v13.499h9.071v-3.575h-5.285v-9.924H38.54m11.107 0v13.499h10.016v-3.52h-6.252v-1.862h4.532v-2.827h-4.532v-1.776h6.164v-3.514h-9.928m21.162 0l-2.839 7.721-2.839-7.721h-4.16l5.405 13.587h3.115l5.405-13.587h-4.087m5.618 0v13.499h3.784v-13.499h-3.784m6.122 0v3.602h3.318v9.897h3.784v-9.897h3.262v-3.602H82.549"/>
        <path d="M93.857 234.893c0 1.775.669 3.419 1.884 4.635 1.236 1.233 2.933 1.913 4.784 1.913h19.027l-.001-26.999H93.862zm-.943.577c0 1.876.708 3.617 1.994 4.902 1.309 1.307 3.105 2.027 5.063 2.027h20.53v-28.915H92.913v21.985"
              fill-rule="evenodd"/>
        <path d="M116.75 228.687v6.784l-4.955-6.784h-3.301V242.4h3.748v-7.038l5.151 7.038h3.106v-13.713h-3.748m-16.744 3.388c-1.76 0-3.185 1.502-3.185 3.358s1.425 3.355 3.185 3.355 3.185-1.501 3.185-3.355-1.425-3.358-3.185-3.358zm7.049 3.36c0 3.845-3.166 6.965-7.072 6.965-3.831 0-7.073-2.841-7.073-6.965 0-3.845 3.167-6.963 7.073-6.963s7.072 3.118 7.072 6.963m16.757 3.628h-.686v.99h.68c.4 0 .632-.119.632-.489 0-.359-.224-.501-.626-.501zm.649 2.447l-.644-1c-.018-.029-.041-.09-.052-.131h-.638v1.131h-.34v-2.762h1.02c.696 0 .979.339.979.816 0 .393-.196.685-.654.787l.749 1.159zm-.672-3.256c-1.031 0-1.864.845-1.864 1.887a1.87 1.87 0 0 0 1.864 1.882 1.87 1.87 0 0 0 1.864-1.882c0-1.042-.832-1.887-1.864-1.887zm0 4.126c-1.226 0-2.223-1.001-2.223-2.239s.997-2.245 2.223-2.245 2.223 1.006 2.223 2.245a2.23 2.23 0 0 1-2.223 2.239"/>
    </g>
    <g stroke="#000" fill="none">
        <g stroke-dashoffset="1" stroke-linejoin="round" stroke-width="2.451">
            <rect x="49.053" y="73.491" width="20.567" height="8.629" rx="3.197" ry="3.575"/>
            <rect x="50.922" y="75.273" width="16.935" height="5.018" rx="2.632" ry="2.079"/>
        </g>
        <path d="M52.504 273.24c42.335 2.355 74.635 1.584 103.02-.408" stroke-width="2.451"/>
    </g>
</svg>
