<svg xmlns="http://www.w3.org/2000/svg" viewBox="0 0 200 290">
    <g fill="none" stroke="#000" stroke-linejoin="round" stroke-dashoffset="1">
        <circle cx="97.103" cy="147.17" r="12.047" stroke-width="5"/>
        <rect width="156.479" height="265.117" x="20.137" y="14.691" rx="5.804" ry="5" stroke-width="8"/>
        <rect width="76.875" height="152.569" x="59.394" y="71.464" rx="5.967" ry="5" stroke-width="5"/>
    </g>
    <path d="M81.133 79.829h3.964v19.769h-3.964zm29.043 2.147h4.579v16.405h-4.579zM80.893 176.19h3.964v19.769h-3.964zm29.043 2.147h4.579v16.405h-4.579zm-6.2-62.001a5.928 5.482 0 0 1-5.928 5.482 5.928 5.482 0 0 1-5.928-5.482 5.928 5.482 0 0 1 5.928-5.482 5.928 5.482 0 0 1 5.928 5.482zm-11.851.245h11.865v7.05H91.885zm11.744 95.887a5.928 5.482 0 0 1-5.928 5.482 5.928 5.482 0 0 1-5.928-5.482 5.928 5.482 0 0 1 5.928-5.482 5.928 5.482 0 0 1 5.928 5.482zm-11.851.245h11.865v7.05H91.778z"
          fill-opacity="2"/>
</svg>
